<svg x="0" y="0" width="48" height="48" version="1.1" xmlns="http://www.w3.org/2000/svg" xmlns:xlink="http://www.w3.org/1999/xlink"><defs><linearGradient x1="12.27587" y1="13.24311" x2="49.86626" y2="48.89902" gradientUnits="userSpaceOnUse" id="color-1"><stop offset="0" stop-color="#000000" stop-opacity="0.5"></stop><stop offset="1" stop-color="#000000" stop-opacity="0"></stop></linearGradient><filter id="dropshadow"><feColorMatrix type="matrix" values="0 0 0 0 .05  0 0 0 0 .15  0 0 0 0 .1  0 0 0 .8 0"></feColorMatrix> <feOffset dx="0" dy="1"></feOffset> <feGaussianBlur stdDeviation="1"></feGaussianBlur> <feComposite in="SourceGraphic"></feComposite></filter></defs><g fill="none" stroke="none" stroke-width="none" stroke-linecap="butt" stroke-linejoin="miter" stroke-miterlimit="none" stroke-dasharray="" stroke-dashoffset="0" font-family="none" font-weight="normal" font-size="none" text-anchor="start" mix-blend-mode="normal"><g fill="#000000" stroke="none" stroke-width="1" stroke-miterlimit="4" font-family="&quot;Open Sans&quot;, sans-serif" font-size="14"></g><path d="M4,24c0,-11.04569 8.95431,-20 20,-20c11.04569,0 20,8.95431 20,20c0,11.04569 -8.95431,20 -20,20c-11.04569,0 -20,-8.95431 -20,-20z" fill="#880e4f" stroke-width="1" stroke-miterlimit="10" font-family="sans-serif" font-size="12" filter="url(#dropshadow)"></path><path d="M12.27587,19.69138c0,-3.61689 2.83138,-6.44827 6.44827,-6.44827c1.85815,0 3.6482,0.78789 4.91831,2.058c0,0 0.00696,0.00696 0.00696,0.00696c-0.00231,-0.00232 -0.00463,-0.00464 -0.00695,-0.00696l0.3709,0.3709c1.27819,-1.48585 3.2296,-2.4289 5.2625,-2.4289c1.80845,0 3.42052,0.70784 4.58047,1.8678l10.10718,10.10718c-0.4757,7.91807 -5.55819,14.59418 -12.60314,17.38402l-14.01715,-14.01715c-3.16577,-3.16577 -5.06735,-5.83672 -5.06735,-8.89357l13.47636,13.47636c0,0 0,0 0.00001,0z M31.7254,27.48158c-2.59626,0.44534 -4.61381,2.39204 -5.16037,4.94785c1.99756,-1.81684 3.74356,-3.43036 5.16037,-4.94785z" fill="url(#color-1)" stroke-width="1" stroke-miterlimit="10" font-family="sans-serif" font-size="12"></path><path d="M24,34.75689l-1.7,-1.54172c-6.03793,-5.48103 -10.02413,-9.09793 -10.02413,-13.52379c0,-3.61689 2.83138,-6.44827 6.44827,-6.44827c2.04,0 3.99793,0.94965 5.27586,2.44448c1.27793,-1.49483 3.23586,-2.44448 5.27586,-2.44448c3.61689,0 6.44827,2.83138 6.44827,6.44827c0,4.42586 -3.9862,8.04275 -10.02413,13.52379z" fill="#f48fb1" stroke="none" stroke-width="0" stroke-miterlimit="4" font-family="&quot;Open Sans&quot;, sans-serif" font-size="14"></path></g></svg>